# xmcd CD database file
#
# Track frame offsets:
#	150
#	18528
#	36341
#	69505
#
# Disc length: 1735 seconds
#
# Revision: 0
# Processed by: cddbd v1.5.1PL2 Copyright (c) Steve Scherf et al.
# Submitted via: CDex 1.51
#
DISCID=3006c504
DTITLE=Tina Turnert - Open Arms
DYEAR=2004
DGENRE=Rhythmic Soul
TTITLE0=Open Arms
TTITLE1=GreatSpirits
TTITLE2=Cosedella vita
TTITLE3=Open arms
EXTD=YEAR: 2004
EXTT0=
EXTT1=
EXTT2=
EXTT3=
PLAYORDER=
